<?xml version="1.0" encoding="utf-8"?>
<!-- Generator: Adobe Illustrator 16.0.0, SVG Export Plug-In . SVG Version: 6.00 Build 0)  -->
<!DOCTYPE svg PUBLIC "-//W3C//DTD SVG 1.1//EN" "http://www.w3.org/Graphics/SVG/1.1/DTD/svg11.dtd">
<svg version="1.1" id="Layer_1" xmlns="http://www.w3.org/2000/svg" xmlns:xlink="http://www.w3.org/1999/xlink" x="0px" y="0px"
	 width="48px" height="48.083px" viewBox="24 19.917 48 48.083" enable-background="new 24 19.917 48 48.083" xml:space="preserve">
<rect x="24" y="20" fill-opacity="0" width="48" height="48"/>
<g>
	
		<linearGradient id="SVGID_1_" gradientUnits="userSpaceOnUse" x1="79.4639" y1="78.9004" x2="25.1699" y2="72.212" gradientTransform="matrix(1 0 0 -1 -8.3599 120.0547)">
		<stop  offset="0" style="stop-color:#66D54B"/>
		<stop  offset="1" style="stop-color:#17C653"/>
	</linearGradient>
	<circle fill="url(#SVGID_1_)" cx="48" cy="44" r="24"/>
</g>
<rect x="40" y="36" fill-opacity="0" width="16" height="16.001"/>
<rect x="40" y="36" fill-opacity="0" width="16" height="16.001"/>
<path fill="#FFFFFF" d="M55.966,48.398c-0.045-0.137-0.333-0.337-0.863-0.603c-0.144-0.083-0.349-0.197-0.614-0.341
	c-0.265-0.144-0.506-0.277-0.721-0.398c-0.217-0.121-0.419-0.238-0.608-0.352c-0.03-0.022-0.125-0.089-0.284-0.199
	s-0.293-0.191-0.403-0.245c-0.11-0.053-0.218-0.08-0.324-0.08c-0.151,0-0.341,0.108-0.567,0.324
	c-0.228,0.216-0.436,0.451-0.625,0.705s-0.391,0.489-0.602,0.705c-0.213,0.216-0.387,0.324-0.523,0.324
	c-0.068,0-0.154-0.019-0.256-0.057s-0.18-0.07-0.233-0.096c-0.053-0.027-0.144-0.08-0.272-0.16c-0.129-0.08-0.201-0.123-0.216-0.131
	c-1.038-0.576-1.928-1.235-2.67-1.977c-0.742-0.743-1.402-1.633-1.978-2.671c-0.007-0.015-0.051-0.087-0.13-0.216
	c-0.08-0.129-0.133-0.22-0.159-0.273c-0.027-0.053-0.059-0.13-0.097-0.233c-0.038-0.102-0.057-0.187-0.057-0.255
	c0-0.136,0.108-0.311,0.324-0.523c0.216-0.212,0.451-0.413,0.705-0.602c0.254-0.189,0.488-0.398,0.705-0.625
	c0.216-0.227,0.324-0.417,0.324-0.568c0-0.106-0.026-0.214-0.08-0.324c-0.053-0.11-0.134-0.244-0.244-0.403
	c-0.11-0.159-0.176-0.254-0.199-0.284c-0.113-0.189-0.23-0.392-0.352-0.608s-0.254-0.457-0.398-0.722s-0.257-0.47-0.341-0.614
	c-0.265-0.53-0.466-0.818-0.602-0.863C43.549,36.012,43.47,36,43.364,36c-0.205,0-0.472,0.038-0.801,0.114
	c-0.33,0.076-0.589,0.155-0.778,0.239c-0.379,0.159-0.78,0.621-1.205,1.386C40.193,38.451,40,39.155,40,39.852
	c0,0.205,0.013,0.403,0.04,0.597c0.026,0.193,0.074,0.411,0.142,0.654c0.068,0.242,0.123,0.422,0.165,0.54s0.119,0.328,0.233,0.63
	c0.113,0.303,0.182,0.489,0.205,0.557c0.265,0.743,0.58,1.405,0.943,1.989c0.598,0.97,1.415,1.972,2.449,3.006
	s2.036,1.851,3.006,2.449c0.583,0.363,1.247,0.678,1.988,0.943c0.068,0.022,0.254,0.09,0.557,0.204
	c0.304,0.114,0.514,0.191,0.631,0.233c0.117,0.041,0.298,0.097,0.54,0.164c0.243,0.068,0.46,0.116,0.653,0.143
	s0.393,0.04,0.598,0.04c0.696,0,1.4-0.193,2.113-0.579c0.765-0.425,1.227-0.826,1.386-1.205c0.084-0.189,0.163-0.449,0.239-0.778
	S56,48.842,56,48.637C56,48.531,55.988,48.451,55.966,48.398z"/>
</svg>
