<svg width="12" height="12" viewBox="0 0 12 12" fill="none" xmlns="http://www.w3.org/2000/svg">
<rect width="12" height="12" fill="black" fill-opacity="0"/>
<rect width="12" height="12" fill="black" fill-opacity="0"/>
<path fill-rule="evenodd" clip-rule="evenodd" d="M11.7063 10.2882L9.09938 7.68126C9.08553 7.66741 9.06927 7.65772 9.0548 7.64483C9.56776 6.86671 9.86714 5.93528 9.86714 4.93362C9.86714 2.20884 7.6583 0 4.93357 0C2.20884 0 0 2.20884 0 4.93357C0 7.65825 2.2088 9.86714 4.93352 9.86714C5.93523 9.86714 6.86661 9.56776 7.64473 9.0548C7.65763 9.06923 7.66726 9.08548 7.68112 9.09933L10.2881 11.7063C10.6797 12.0979 11.3146 12.0979 11.7063 11.7063C12.0979 11.3147 12.0979 10.6798 11.7063 10.2882ZM4.93357 8.15683C3.15336 8.15683 1.71027 6.71373 1.71027 4.93357C1.71027 3.15336 3.15341 1.71027 4.93357 1.71027C6.71369 1.71027 8.15683 3.15341 8.15683 4.93357C8.15683 6.71373 6.71369 8.15683 4.93357 8.15683Z" fill="#333333"/>
</svg>
