<svg width="13" height="17" viewBox="0 0 13 17" fill="none" xmlns="http://www.w3.org/2000/svg">
<path d="M2.10761 9.94587C2.10139 9.91989 2.08892 9.89651 2.08321 9.87053H1.04421C1.10135 10.1801 1.18498 10.4809 1.29252 10.7708L2.10761 9.94587ZM4.16121 3.63652C4.16121 2.20216 5.32437 1.039 6.75873 1.039C7.88811 1.039 8.83932 1.76422 9.19727 2.77102L9.97858 1.98033C9.3744 0.809377 8.16708 0 6.7587 0C4.75031 0 3.12219 1.6281 3.12219 3.63652V8.83155C3.12219 8.85854 4.16119 7.86734 4.16119 7.86734V3.63652H4.16121ZM12.2535 1.56474L6.48249e-09 13.2971L0.74185 14.0291L13 2.30242L12.2535 1.56474ZM6.7587 13.507C5.7514 13.507 4.80329 13.1761 4.01364 12.6337L3.28322 13.373C4.13209 14.0021 5.14458 14.424 6.23917 14.5227V15.585H5.71966C5.4329 15.585 5.20015 15.8178 5.20015 16.1046C5.20015 16.3913 5.4329 16.6241 5.71966 16.6241H7.79769C8.08445 16.6241 8.31717 16.3913 8.31717 16.1046C8.31717 15.8178 8.08445 15.585 7.79769 15.585H7.27819V14.5227C9.84298 14.2915 12.0145 12.3636 12.4732 9.87053H11.4342C10.9615 11.9516 8.98321 13.507 6.7587 13.507ZM6.7587 11.429C6.30933 11.429 5.89374 11.3049 5.52489 11.1038L4.76798 11.8701C5.34047 12.2457 6.0231 12.468 6.75873 12.468C8.76712 12.468 10.3952 10.8399 10.3952 8.83152V6.1753L9.35622 7.22677V8.83152C9.35622 10.2659 8.19306 11.429 6.7587 11.429Z" fill="#FF5B65"/>
</svg>
