<svg width="20" height="6" viewBox="0 0 20 6" fill="none" xmlns="http://www.w3.org/2000/svg">
<rect width="5.53466" height="20" fill="black" fill-opacity="0" transform="translate(20) rotate(90)"/>
<path d="M14.4653 2.76733C14.4653 4.29385 15.7062 5.53466 17.2327 5.53466C18.7592 5.53466 20 4.29385 20 2.76733C20 1.24081 18.7592 -3.86674e-08 17.2327 -1.05394e-07C15.7062 0.00408143 14.4653 1.24489 14.4653 2.76733ZM18.6 2.76733C18.6 3.52243 17.9878 4.13467 17.2327 4.13467C16.4776 4.13467 15.8653 3.52242 15.8653 2.76733C15.8653 2.01631 16.4776 1.40407 17.2327 1.40407C17.9878 1.40407 18.6 2.01631 18.6 2.76733Z" fill="#C9CCD5"/>
<path d="M7.23268 2.76733C7.23268 4.29385 8.47349 5.53466 10 5.53466C11.5265 5.53466 12.7673 4.29385 12.7673 2.76733C12.7673 1.24081 11.5265 -3.86674e-08 10 -1.05394e-07C8.47349 0.00408143 7.23268 1.24489 7.23268 2.76733ZM11.3673 2.76733C11.3673 3.52243 10.7551 4.13467 10 4.13467C9.24491 4.13467 8.63267 3.52242 8.63267 2.76733C8.63267 2.01631 9.24491 1.40407 10 1.40407C10.7551 1.40407 11.3673 2.01631 11.3673 2.76733Z" fill="#C9CCD5"/>
<path d="M1.13231e-05 2.76733C1.12564e-05 4.29385 1.24082 5.53466 2.76734 5.53466C4.29386 5.53466 5.53467 4.29385 5.53467 2.76733C5.53467 1.24081 4.29386 -3.86674e-08 2.76734 -1.05394e-07C1.24082 0.00408143 1.13897e-05 1.24489 1.13231e-05 2.76733ZM4.13468 2.76733C4.13468 3.52243 3.52244 4.13467 2.76734 4.13467C2.01224 4.13467 1.4 3.52242 1.4 2.76733C1.4 2.01223 2.01224 1.39999 2.76734 1.39999C3.52244 1.40407 4.13468 2.01631 4.13468 2.76733Z" fill="#C9CCD5"/>
</svg>
