<?xml version="1.0" encoding="utf-8"?>
<!-- Generator: Adobe Illustrator 16.0.0, SVG Export Plug-In . SVG Version: 6.00 Build 0)  -->
<!DOCTYPE svg PUBLIC "-//W3C//DTD SVG 1.1//EN" "http://www.w3.org/Graphics/SVG/1.1/DTD/svg11.dtd">
<svg version="1.1" id="Layer_1" xmlns="http://www.w3.org/2000/svg" xmlns:xlink="http://www.w3.org/1999/xlink" x="0px" y="0px"
	 width="20px" height="16px" viewBox="0 0 20 16" enable-background="new 0 0 20 16" xml:space="preserve">
<rect fill="#6154EE" fill-opacity="0" width="20" height="15.275"/>
<rect fill="#6154EE" fill-opacity="0" width="20" height="15.275"/>
<path fill="#6154EE" d="M0,15.275V5.489C0,2.463,2.463,0,5.489,0h9.021C17.537,0,20,2.463,20,5.489v1.688
	c0,3.026-2.463,5.489-5.489,5.489H5.616L0,15.275z M5.489,1.224c-2.352,0-4.266,1.914-4.266,4.266v7.868l4.123-1.916h9.164
	c2.353,0,4.266-1.913,4.266-4.265V5.488c0-2.352-1.914-4.265-4.267-4.265L5.489,1.224L5.489,1.224z M5.893,5.396
	c0.643,0,1.164,0.521,1.164,1.164c0,0.643-0.521,1.164-1.164,1.164S4.729,7.203,4.729,6.56C4.729,5.917,5.25,5.396,5.893,5.396z
	 M14.107,5.396c0.643,0,1.163,0.521,1.163,1.164c0,0.643-0.521,1.164-1.163,1.164c-0.644,0-1.164-0.521-1.164-1.164
	C12.943,5.917,13.464,5.396,14.107,5.396z M9.999,5.396c0.644,0,1.163,0.521,1.163,1.164c0,0.643-0.52,1.164-1.163,1.164
	c-0.643,0-1.164-0.521-1.164-1.164C8.835,5.917,9.356,5.396,9.999,5.396z"/>
</svg>
