<svg width="12" height="12" viewBox="0 0 12 12" fill="none" xmlns="http://www.w3.org/2000/svg">
<rect width="12" height="11.9999" fill="black" fill-opacity="0"/>
<rect width="12" height="11.9999" fill="black" fill-opacity="0"/>
<rect width="12" height="11.9999" fill="black" fill-opacity="0"/>
<path d="M2.1818 0C0.981814 0 0 0.981814 0 2.1818V9.81814C0 11.0181 0.981814 11.9999 2.1818 11.9999C3.38178 11.9999 4.36359 11.0181 4.36359 9.81814V2.1818C4.36365 0.981814 3.38184 0 2.1818 0ZM3.27276 9.8182C3.27276 10.4728 2.83642 10.9091 2.18186 10.9091C1.52729 10.9091 1.09096 10.4728 1.09096 9.8182V2.1818C1.09096 1.52723 1.52729 1.0909 2.18186 1.0909C2.83642 1.0909 3.27276 1.52723 3.27276 2.1818V9.8182Z" fill="#FF5B65"/>
<path d="M9.81827 0C8.61829 0 7.63647 0.981814 7.63647 2.1818V9.81814C7.63647 11.0181 8.61829 11.9999 9.81827 11.9999C11.0183 11.9999 12.0001 11.0181 12.0001 9.81814V2.1818C12.0001 0.981814 11.0183 0 9.81827 0ZM10.9092 9.8182C10.9092 10.4728 10.4728 10.9091 9.81827 10.9091C9.16371 10.9091 8.72737 10.4728 8.72737 9.8182V2.1818C8.72737 1.52723 9.16371 1.0909 9.81827 1.0909C10.4728 1.0909 10.9092 1.52723 10.9092 2.1818V9.8182Z" fill="#FF5B65"/>
</svg>
