<svg width="16" height="16" viewBox="0 0 16 16" fill="none" xmlns="http://www.w3.org/2000/svg">
<rect width="16" height="15.3649" fill="black" fill-opacity="0"/>
<rect width="16" height="15.3649" fill="black" fill-opacity="0"/>
<rect width="16" height="15.3649" fill="black" fill-opacity="0"/>
<rect width="16" height="15.3649" fill="black" fill-opacity="0"/>
<path d="M7.9987 10.0918C8.40734 10.0852 8.78983 10.0297 9.13962 9.92506C9.50903 10.6671 10.6205 11.7885 13.8962 12.6123C14.8573 12.8575 14.9162 14.067 14.8671 14.7666C14.8442 15.0739 15.0796 15.342 15.3869 15.3649C15.4 15.3649 15.4131 15.3649 15.4261 15.3649C15.7171 15.3649 15.9656 15.1393 15.9852 14.8451C16.1094 13.0601 15.449 11.8506 14.1675 11.5237C11.1763 10.7718 10.3688 9.84006 10.1531 9.43142C10.3623 9.28104 10.5584 9.10777 10.735 8.90509C12.2257 7.22476 11.9838 4.35447 11.9543 4.07006C11.7811 0.343258 8.86175 0.0130765 7.96928 -8.23067e-09H7.94639C7.93986 -8.23067e-09 7.93332 -8.23067e-09 7.92351 -8.23067e-09H7.9039C6.06338 0.0196147 4.05287 1.10169 3.90903 4.07006C3.87961 4.35447 3.63769 7.22476 5.12841 8.90509C5.3311 9.13393 5.55994 9.33334 5.80512 9.4968C5.54032 9.92179 4.6642 10.8143 1.82987 11.5237C0.55164 11.8473 -0.111992 13.0601 0.0155038 14.8418C0.0351185 15.136 0.283572 15.3616 0.574524 15.3616C0.5876 15.3616 0.600677 15.3616 0.613753 15.3616C0.921051 15.3387 1.15643 15.0707 1.13354 14.7634C1.08451 14.0638 1.14662 12.8542 2.10447 12.609C5.2886 11.8113 6.43606 10.7227 6.83816 9.95448C7.15854 10.0395 7.50179 10.0852 7.86793 10.0918H7.9987ZM7.91697 8.97047C7.08335 8.96066 6.44587 8.69586 5.96858 8.163C4.76227 6.80631 5.0238 4.19755 5.0238 4.1714C5.0238 4.15832 5.02707 4.14852 5.02707 4.13544C5.14476 1.53976 6.8872 1.13112 7.91697 1.12131H7.93332H7.95293C8.97944 1.13439 10.7219 1.5463 10.8396 4.13544C10.8396 4.14525 10.8396 4.15832 10.8428 4.16813C10.8461 4.19428 11.1076 6.80304 9.89806 8.15973C9.42077 8.69586 8.78656 8.9574 7.94966 8.9672H7.91697V8.97047Z" fill="#4C9EFF"/>
</svg>
