<svg width="20" height="16" viewBox="0 0 20 16" fill="none" xmlns="http://www.w3.org/2000/svg">
<rect width="20" height="15.2751" fill="black" fill-opacity="0"/>
<rect width="20" height="15.2751" fill="black" fill-opacity="0"/>
<path d="M0 15.2751V5.48907C0 2.46266 2.46266 -3.64706e-08 5.48907 -3.64706e-08H14.5096C17.5367 -3.64706e-08 20 2.46266 20 5.48907V7.177C20 10.2034 17.5373 12.6661 14.5109 12.6661H5.61632L0 15.2751ZM5.48907 1.22375C3.13718 1.22375 1.22375 3.13718 1.22375 5.48907V13.3571L5.34665 11.4417H14.5109C16.8628 11.4417 18.7762 9.52824 18.7762 7.17634V5.48841C18.7762 3.13652 16.8622 1.22309 14.5096 1.22309H5.48907V1.22375ZM5.89259 5.3961C6.53546 5.3961 7.05634 5.91699 7.05634 6.55985C7.05634 7.20272 6.53546 7.7236 5.89259 7.7236C5.24973 7.7236 4.72884 7.20272 4.72884 6.55985C4.72884 5.91699 5.24973 5.3961 5.89259 5.3961ZM14.1067 5.3961C14.7496 5.3961 15.2705 5.91699 15.2705 6.55985C15.2705 7.20272 14.7496 7.7236 14.1067 7.7236C13.4639 7.7236 12.943 7.20272 12.943 6.55985C12.943 5.91699 13.4639 5.3961 14.1067 5.3961ZM9.99901 5.3961C10.6419 5.3961 11.1628 5.91699 11.1628 6.55985C11.1628 7.20272 10.6419 7.7236 9.99901 7.7236C9.35615 7.7236 8.83526 7.20272 8.83526 6.55985C8.83526 5.91699 9.35615 5.3961 9.99901 5.3961Z" fill="#4F4F4F"/>
</svg>
