<svg width="15" height="13" viewBox="0 0 15 13" fill="none" xmlns="http://www.w3.org/2000/svg">
<rect width="15" height="12.8911" fill="black" fill-opacity="0"/>
<rect width="15" height="12.8911" fill="black" fill-opacity="0"/>
<rect width="15" height="12.8911" fill="black" fill-opacity="0"/>
<rect width="15" height="12.8911" fill="black" fill-opacity="0"/>
<path d="M0.189705 6.30651L6.71005 11.7009C6.86609 11.8294 7.08334 11.8569 7.26692 11.7712C7.45051 11.6856 7.56678 11.4989 7.56678 11.297V8.59215C10.1033 8.60439 11.8749 8.84611 14.0167 12.6249C14.1116 12.7932 14.2891 12.8911 14.4726 12.8911C14.5185 12.8911 14.5614 12.885 14.6073 12.8727C14.8368 12.8116 14.9989 12.6035 14.9989 12.3648C14.9989 12.2608 14.9989 12.1506 14.9989 12.0374C15.005 10.6116 15.0173 8.45752 14.0259 6.62473C12.8877 4.51655 10.7153 3.38138 7.56678 3.24064V0.523572C7.56678 0.321628 7.45051 0.134983 7.26692 0.0493096C7.08334 -0.0363636 6.86609 -0.00882578 6.71005 0.119684L0.189705 5.49568C0.0703744 5.59665 0 5.74352 0 5.89956C0 6.05561 0.0673146 6.20554 0.189705 6.30651ZM6.52034 1.63732V3.75467C6.52034 4.04229 6.75288 4.27789 7.0405 4.28095C12.8846 4.33603 13.7964 7.74766 13.9311 10.5412C11.8596 7.70482 9.87995 7.54265 7.04662 7.54265C6.90893 7.54265 6.7743 7.59773 6.67639 7.69564C6.57848 7.79355 6.5234 7.92818 6.5234 8.06587V10.1832L1.35241 5.90262L6.52034 1.63732Z" fill="#C9CCD5"/>
</svg>
