<svg width="24" height="24" viewBox="0 0 24 24" fill="none" xmlns="http://www.w3.org/2000/svg">
<rect width="24" height="24" fill="black" fill-opacity="0"/>
<path fill-rule="evenodd" clip-rule="evenodd" d="M12 2C6.486 2 2 6.486 2 12C2 17.514 6.486 22 12 22C17.514 22 22 17.514 22 12C22 6.486 17.514 2 12 2ZM12 24C5.383 24 0 18.617 0 12C0 5.383 5.383 0 12 0C18.617 0 24 5.383 24 12C24 18.617 18.617 24 12 24Z" fill="#CCCCCC"/>
<path fill-rule="evenodd" clip-rule="evenodd" d="M16 16.9998C15.744 16.9998 15.488 16.9018 15.293 16.7068L7.29301 8.70676C6.90201 8.31576 6.90201 7.68376 7.29301 7.29276C7.68401 6.90176 8.31601 6.90176 8.70701 7.29276L16.707 15.2928C17.098 15.6838 17.098 16.3158 16.707 16.7068C16.512 16.9018 16.256 16.9998 16 16.9998Z" fill="#CCCCCC"/>
<path fill-rule="evenodd" clip-rule="evenodd" d="M8.00001 16.9998C7.74401 16.9998 7.48801 16.9018 7.29301 16.7068C6.90201 16.3158 6.90201 15.6838 7.29301 15.2928L15.293 7.29276C15.684 6.90176 16.316 6.90176 16.707 7.29276C17.098 7.68376 17.098 8.31576 16.707 8.70676L8.70701 16.7068C8.51201 16.9018 8.25601 16.9998 8.00001 16.9998Z" fill="#CCCCCC"/>
</svg>
