<svg width="10" height="11" viewBox="0 0 10 11" fill="none" xmlns="http://www.w3.org/2000/svg">
<rect width="9.65685" height="10.406" fill="black" fill-opacity="0"/>
<path d="M7.68552 0.857282L5.9713 0.857315L5.97137 3.63682L4.80812 3.63673L6.82843 5.65704L8.84869 3.63678L7.68549 3.63676L7.68552 0.857282Z" fill="#FF5B6D"/>
<path d="M9.03304 9.5427L8.37021 10.2119C8.25181 10.3308 7.90524 10.4059 7.89477 10.4059C5.79637 10.4238 3.77615 9.59193 2.29141 8.09289C0.802429 6.59009 -0.0224726 4.54265 0.000465912 2.41821C0.000465912 2.41821 0.0764537 2.07686 0.194568 1.95854L0.857395 1.28876C1.10065 1.04359 1.56635 0.932657 1.89256 1.04232L2.03231 1.08976C2.35858 1.19946 2.69946 1.56297 2.78978 1.89752L3.12369 3.13418C3.21429 3.46931 3.09247 3.94623 2.84961 4.1915L2.40648 4.63879C2.84103 6.2648 4.10422 7.53954 5.714 7.97892L6.15712 7.53167C6.40009 7.2864 6.87372 7.16375 7.20566 7.25505L8.43068 7.59267C8.76148 7.68326 9.1216 8.0269 9.23087 8.35664L9.27732 8.49772C9.38585 8.82728 9.276 9.29751 9.03304 9.5427Z" fill="#AAAAC0"/>
</svg>
