<svg width="16" height="17" viewBox="0 0 16 17" fill="none" xmlns="http://www.w3.org/2000/svg">
<rect width="16" height="16.0033" fill="black" fill-opacity="0"/>
<rect width="16" height="16.0033" fill="black" fill-opacity="0"/>
<rect width="16" height="16.0033" fill="black" fill-opacity="0"/>
<rect width="16" height="16.0033" fill="black" fill-opacity="0"/>
<path d="M11.2199 2.34593C10.7494 2.07801 10.2495 1.8689 9.72677 1.72514V1.19257C9.72677 0.535838 9.19093 0 8.5342 0H7.47233C6.8156 0 6.27976 0.535838 6.27976 1.19257V1.72514C5.75699 1.8689 5.2571 2.07474 4.7866 2.34593L4.4076 1.97019C4.18215 1.74474 3.88156 1.62058 3.56463 1.62058C3.2477 1.62058 2.94711 1.74474 2.72167 1.97019L1.97019 2.72167C1.74474 2.94711 1.62058 3.2477 1.62058 3.56463C1.62058 3.88156 1.74474 4.18215 1.97019 4.4076L2.34593 4.78334C2.07801 5.25383 1.8689 5.75373 1.72514 6.2765H1.19257C0.535838 6.2765 0 6.81233 0 7.46906V8.53094C0 9.18767 0.535838 9.7235 1.19257 9.7235H1.72514C1.8689 10.2463 2.07474 10.7462 2.34593 11.2167L1.97019 11.5957C1.50623 12.0596 1.50623 12.8176 1.97019 13.2816L2.72167 14.0331C2.94711 14.2585 3.2477 14.3827 3.56463 14.3827C3.88156 14.3827 4.18215 14.2585 4.4076 14.0331L4.78334 13.6573C5.25383 13.9253 5.75373 14.1344 6.2765 14.2781V14.8107C6.2765 15.4674 6.81233 16.0033 7.46906 16.0033H8.53094C9.18767 16.0033 9.7235 15.4674 9.7235 14.8107V14.2781C10.2463 14.1344 10.7462 13.9285 11.2167 13.6573L11.5924 14.0331C11.8178 14.2585 12.1184 14.3827 12.4354 14.3827C12.7523 14.3827 13.0529 14.2585 13.2783 14.0331L14.0298 13.2816C14.4938 12.8176 14.4938 12.0596 14.0298 11.5957L13.6541 11.2199C13.922 10.7494 14.1311 10.2495 14.2749 9.72677H14.8074C15.4642 9.72677 16 9.19093 16 8.5342V7.47233C16 6.8156 15.4642 6.27976 14.8074 6.27976H14.2749C14.1311 5.75699 13.9253 5.2571 13.6541 4.7866L14.0298 4.41086C14.4938 3.94691 14.4938 3.18889 14.0298 2.72493L13.2783 1.97345C13.0529 1.74801 12.7523 1.62385 12.4354 1.62385C12.1184 1.62385 11.8178 1.74801 11.5924 1.97345L11.2199 2.34593ZM12.3896 2.76087C12.419 2.73147 12.4615 2.73147 12.4909 2.76087L13.2424 3.51235C13.2718 3.54176 13.2718 3.58424 13.2424 3.61364L12.553 4.30304C12.3635 4.49255 12.3341 4.78987 12.4844 5.01205C12.8797 5.60016 13.1476 6.25362 13.2849 6.94629C13.3371 7.20768 13.5659 7.39718 13.8338 7.39718H14.8107C14.8499 7.39718 14.8826 7.42985 14.8826 7.46906V8.53094C14.8826 8.57014 14.8499 8.60282 14.8107 8.60282H13.8338C13.5659 8.60282 13.3371 8.79232 13.2849 9.05371C13.1476 9.74964 12.8765 10.3998 12.4844 10.988C12.3341 11.2101 12.3635 11.5075 12.553 11.697L13.2424 12.3864C13.2718 12.4158 13.2718 12.4582 13.2424 12.4876L12.4909 13.2391C12.4648 13.2685 12.419 13.2653 12.3896 13.2391L11.7002 12.5497C11.5107 12.3602 11.2134 12.3308 10.9912 12.4811C10.3998 12.8765 9.74964 13.1444 9.05697 13.2816C8.79559 13.3339 8.60609 13.5626 8.60609 13.8305V14.8074C8.60609 14.8466 8.57341 14.8793 8.5342 14.8793H7.47233C7.43312 14.8793 7.40045 14.8466 7.40045 14.8074V13.8305C7.40045 13.5626 7.21095 13.3339 6.94956 13.2816C6.25689 13.1444 5.60343 12.8732 5.01532 12.4811C4.92056 12.419 4.81274 12.3864 4.70492 12.3864C4.56116 12.3864 4.4174 12.4419 4.30958 12.5497L3.62018 13.2391C3.59077 13.2685 3.54829 13.2685 3.51889 13.2391L2.76741 12.4876C2.738 12.4582 2.738 12.4158 2.76741 12.3864L3.45681 11.697C3.64631 11.5075 3.67572 11.2101 3.52542 10.988C3.13008 10.3966 2.86216 9.74638 2.72493 9.05371C2.67266 8.79232 2.44395 8.60282 2.17603 8.60282H1.19257C1.15336 8.60282 1.12069 8.57014 1.12069 8.53094V7.46906C1.12069 7.42985 1.15336 7.39718 1.19257 7.39718H2.16949C2.43741 7.39718 2.66612 7.20768 2.7184 6.94629C2.85563 6.25362 3.12681 5.60016 3.51889 5.01205C3.66592 4.78987 3.63978 4.49255 3.45028 4.30304L2.76087 3.61364C2.7478 3.60057 2.74127 3.58424 2.74127 3.56136C2.74127 3.54176 2.7478 3.52542 2.76087 3.51235L3.51235 2.76087C3.54176 2.73147 3.58424 2.73147 3.61364 2.76087L4.30304 3.45028C4.49255 3.63978 4.78987 3.66919 5.01205 3.51889C5.60343 3.12354 6.25362 2.85563 6.94629 2.7184C7.20768 2.66612 7.39718 2.43741 7.39718 2.16949V1.19257C7.39718 1.15336 7.42985 1.12069 7.46906 1.12069H8.53094C8.57014 1.12069 8.60282 1.15336 8.60282 1.19257V2.16949C8.60282 2.43741 8.79232 2.66612 9.05371 2.7184C9.74638 2.85563 10.3998 3.12681 10.988 3.51889C11.2101 3.66592 11.5075 3.63978 11.697 3.45028L12.3896 2.76087Z" fill="white"/>
<path d="M8.00167 4.74756C6.20792 4.74756 4.74744 6.20804 4.74744 8.0018C4.74744 9.79555 6.20792 11.256 8.00167 11.256C9.79542 11.256 11.2559 9.79555 11.2559 8.0018C11.2559 6.20804 9.79542 4.74756 8.00167 4.74756ZM8.00167 10.1353C6.82544 10.1353 5.86812 9.17803 5.86812 8.0018C5.86812 6.82557 6.82544 5.86824 8.00167 5.86824C9.1779 5.86824 10.1352 6.82557 10.1352 8.0018C10.1352 9.17803 9.1779 10.1353 8.00167 10.1353Z" fill="white"/>
</svg>
