<?xml version="1.0" encoding="utf-8"?>
<!-- Generator: Adobe Illustrator 16.0.0, SVG Export Plug-In . SVG Version: 6.00 Build 0)  -->
<!DOCTYPE svg PUBLIC "-//W3C//DTD SVG 1.1//EN" "http://www.w3.org/Graphics/SVG/1.1/DTD/svg11.dtd">
<svg version="1.1" id="Layer_1" xmlns="http://www.w3.org/2000/svg" xmlns:xlink="http://www.w3.org/1999/xlink" x="0px" y="0px"
	 width="18px" height="18px" viewBox="0 0 18 18" enable-background="new 0 0 18 18" xml:space="preserve">
<rect fill-opacity="0" width="18" height="17.984"/>
<rect fill-opacity="0" width="18" height="17.984"/>
<rect fill-opacity="0" width="18" height="17.984"/>
<rect fill-opacity="0" width="18" height="17.984"/>
<path fill="#4F4F4F" d="M16.922,0H9.38C8.785,0,8.676,0.26,8.108,0.854L0.684,8.256c-0.912,0.908-0.912,2.381,0,3.29l5.775,5.758
	c0.912,0.909,2.389,0.909,3.3,0l7.425-7.402C17.662,9.424,18,9.188,18,8.594V1.075C18,0.481,17.518,0,16.922,0z M8.933,16.48
	c-0.455,0.455-1.194,0.455-1.65,0l-5.775-5.758c-0.455-0.453-0.455-1.19,0-1.645l0.834-0.831l7.408,7.419L8.933,16.48z
	 M16.922,8.057c0,0.297-0.272,0.732-0.563,1.022l-5.775,5.757L3.167,7.424l5.766-5.748c0.265-0.264,0.688-0.602,0.985-0.602h6.465
	c0.297,0,0.539,0.241,0.539,0.537V8.057L16.922,8.057z M10.996,3.732c-0.911,0.909-0.911,2.381,0,3.29
	c0.912,0.908,2.389,0.908,3.301,0c0.91-0.909,0.91-2.381,0-3.29C13.385,2.824,11.907,2.824,10.996,3.732z M13.471,6.2
	c-0.455,0.454-1.194,0.454-1.65,0c-0.455-0.455-0.455-1.191,0-1.645c0.455-0.455,1.195-0.455,1.65,0
	C13.927,5.009,13.927,5.745,13.471,6.2z"/>
</svg>
