<svg width="10" height="10" viewBox="0 0 10 10" fill="none" xmlns="http://www.w3.org/2000/svg">
<rect width="9.31919" height="9.40619" fill="black" fill-opacity="0"/>
<path d="M9 1.52315L7.78784 0.311035L5.82248 2.2765L5 1.45388V4.31104H7.85708L7.03459 3.48852L9 1.52315Z" fill="#3ED7DA"/>
<path d="M9.03304 8.5427L8.37021 9.2119C8.25181 9.33076 7.90524 9.40591 7.89477 9.40591C5.79637 9.42376 3.77615 8.59193 2.29141 7.09289C0.802429 5.59009 -0.0224726 3.54265 0.000465912 1.41821C0.000465912 1.41821 0.0764537 1.07686 0.194568 0.958541L0.857395 0.288759C1.10065 0.0435903 1.56635 -0.067343 1.89256 0.0423212L2.03231 0.089757C2.35858 0.199463 2.69946 0.562972 2.78978 0.897519L3.12369 2.13418C3.21429 2.46931 3.09247 2.94623 2.84961 3.1915L2.40648 3.63879C2.84103 5.2648 4.10422 6.53954 5.714 6.97892L6.15712 6.53167C6.40009 6.2864 6.87372 6.16375 7.20566 6.25505L8.43068 6.59267C8.76148 6.68326 9.1216 7.0269 9.23087 7.35664L9.27732 7.49772C9.38585 7.82728 9.276 8.29751 9.03304 8.5427Z" fill="#AAAAC0"/>
</svg>
