<svg width="12" height="12" viewBox="0 0 12 12" fill="none" xmlns="http://www.w3.org/2000/svg">
<rect width="12" height="12" fill="black" fill-opacity="0"/>
<rect width="12" height="12" fill="black" fill-opacity="0"/>
<path d="M1.71429 8.57129C0.769071 8.57129 0 9.34036 0 10.2856C0 11.2308 0.769071 11.9999 1.71429 11.9999C2.6595 11.9999 3.42857 11.2308 3.42857 10.2856C3.42857 9.34036 2.6595 8.57129 1.71429 8.57129Z" fill="white"/>
<path d="M5.99993 8.57129C5.05472 8.57129 4.28564 9.34036 4.28564 10.2856C4.28564 11.2308 5.05472 11.9999 5.99993 11.9999C6.94514 11.9999 7.71422 11.2308 7.71422 10.2856C7.71422 9.34036 6.94514 8.57129 5.99993 8.57129Z" fill="white"/>
<path d="M10.2858 8.57129C9.3406 8.57129 8.57153 9.34036 8.57153 10.2856C8.57153 11.2308 9.3406 11.9999 10.2858 11.9999C11.231 11.9999 12.0001 11.2308 12.0001 10.2856C12.0001 9.34036 11.231 8.57129 10.2858 8.57129Z" fill="white"/>
<path d="M1.71429 4.28564C0.769071 4.28564 0 5.05472 0 5.99993C0 6.94514 0.769071 7.71422 1.71429 7.71422C2.6595 7.71422 3.42857 6.94514 3.42857 5.99993C3.42857 5.05472 2.6595 4.28564 1.71429 4.28564Z" fill="white"/>
<path d="M5.99993 4.28564C5.05472 4.28564 4.28564 5.05472 4.28564 5.99993C4.28564 6.94514 5.05472 7.71422 5.99993 7.71422C6.94514 7.71422 7.71422 6.94514 7.71422 5.99993C7.71422 5.05472 6.94514 4.28564 5.99993 4.28564Z" fill="white"/>
<path d="M10.2858 4.28564C9.3406 4.28564 8.57153 5.05472 8.57153 5.99993C8.57153 6.94514 9.3406 7.71422 10.2858 7.71422C11.231 7.71422 12.0001 6.94514 12.0001 5.99993C12.0001 5.05472 11.231 4.28564 10.2858 4.28564Z" fill="white"/>
<path d="M1.71429 0C0.769071 0 0 0.769071 0 1.71429C0 2.6595 0.769071 3.42857 1.71429 3.42857C2.6595 3.42857 3.42857 2.6595 3.42857 1.71429C3.42857 0.769071 2.6595 0 1.71429 0Z" fill="white"/>
<path d="M5.99993 0C5.05472 0 4.28564 0.769071 4.28564 1.71429C4.28564 2.6595 5.05472 3.42857 5.99993 3.42857C6.94514 3.42857 7.71422 2.6595 7.71422 1.71429C7.71422 0.769071 6.94514 0 5.99993 0Z" fill="white"/>
<path d="M10.2858 3.42857C11.231 3.42857 12.0001 2.6595 12.0001 1.71429C12.0001 0.769071 11.231 0 10.2858 0C9.3406 0 8.57153 0.769071 8.57153 1.71429C8.57153 2.6595 9.3406 3.42857 10.2858 3.42857Z" fill="white"/>
</svg>
