<svg width="16" height="16" viewBox="0 0 16 16" fill="none" xmlns="http://www.w3.org/2000/svg">
<rect width="16" height="16" fill="black" fill-opacity="0"/>
<rect width="16" height="16" fill="black" fill-opacity="0"/>
<rect width="16" height="16" fill="black" fill-opacity="0"/>
<rect width="16" height="16" fill="black" fill-opacity="0"/>
<path d="M7.43839 5.68468V7.43815H5.68492C5.37472 7.43815 5.12329 7.68958 5.12329 7.99978C5.12329 8.30999 5.37472 8.56141 5.68492 8.56141H7.43839V10.3149C7.43839 10.6251 7.68982 10.8765 8.00003 10.8765C8.31023 10.8765 8.55839 10.6251 8.55839 10.3149V8.56141H10.3119C10.6221 8.56141 10.8735 8.30999 10.8735 7.99978C10.8735 7.68958 10.6221 7.43815 10.3119 7.43815H8.55839V5.68468C8.55839 5.37448 8.30696 5.12305 8.00003 5.12305C7.69309 5.12305 7.43839 5.37448 7.43839 5.68468Z" fill="white"/>
<path d="M2.34122 2.34122C0.832653 3.85306 0 5.86122 0 8C0 10.1388 0.832653 12.1469 2.34449 13.6588C3.85306 15.1673 5.86449 16 8 16C10.1355 16 12.1469 15.1673 13.6588 13.6555C15.1673 12.1469 16 10.1355 16 8C16 5.86449 15.1673 3.85306 13.6555 2.34122C12.1469 0.832653 10.1388 0 8 0C5.86449 0 3.85306 0.832653 2.34122 2.34122ZM14.88 8C14.88 9.83837 14.1649 11.5657 12.8653 12.8653C11.5657 14.1649 9.83837 14.88 8 14.88C6.16163 14.88 4.43429 14.1649 3.13469 12.8653C1.8351 11.5657 1.12 9.83837 1.12 8C1.12 6.16163 1.8351 4.43429 3.13469 3.13469C4.43429 1.8351 6.16163 1.12 8 1.12C9.83837 1.12 11.5657 1.8351 12.8653 3.13469C14.1649 4.43429 14.88 6.16163 14.88 8Z" fill="white"/>
</svg>
