<svg width="18" height="20" viewBox="0 0 18 20" fill="none" xmlns="http://www.w3.org/2000/svg">
<rect width="18" height="19.0228" fill="black" fill-opacity="0"/>
<rect width="16.7987" height="16.7987" fill="black" fill-opacity="0" transform="translate(0 2.22412)"/>
<rect width="16.7987" height="16.7987" fill="black" fill-opacity="0" transform="translate(0 2.22412)"/>
<path d="M15.5988 8.82365V17.823H1.19992V3.42404H2.9998V2.22412H0.599961C0.268771 2.22412 -2.26769e-09 2.49289 -2.26769e-09 2.82408V18.4229C-2.26769e-09 18.7541 0.268771 19.0229 0.599961 19.0229H16.1988C16.5306 19.0229 16.7987 18.7541 16.7987 18.4229V8.82365H15.5988Z" fill="#4F4F4F"/>
<rect width="13.2004" height="8.82356" fill="black" fill-opacity="0" transform="translate(4.79956)"/>
<rect width="13.2004" height="8.82356" fill="black" fill-opacity="0" transform="translate(4.79956)"/>
<path d="M17.824 3.59973L14.2242 0L13.3759 0.848334L15.9515 3.42395H5.99948C5.41754 3.42395 4.79956 3.84453 4.79956 4.62387V8.82356H5.99948V4.62387H15.9516L13.3759 7.19949L14.2243 8.04783L17.824 4.4481C18.0586 4.21347 18.0586 3.83432 17.824 3.59973Z" fill="#4F4F4F"/>
</svg>
