<svg width="18" height="18" viewBox="0 0 18 18" fill="none" xmlns="http://www.w3.org/2000/svg">
<rect width="18" height="17.985" fill="black" fill-opacity="0"/>
<rect width="18" height="17.985" fill="black" fill-opacity="0"/>
<rect width="18" height="17.985" fill="black" fill-opacity="0"/>
<rect width="18" height="17.985" fill="black" fill-opacity="0"/>
<path d="M16.9221 3.5762e-10H9.37975C8.78485 3.5762e-10 8.67577 0.260347 8.10843 0.85354L0.683566 8.2559C-0.227855 9.16397 -0.227855 10.6371 0.683566 11.5458L6.4587 17.3035C7.37015 18.2122 8.84727 18.2122 9.75869 17.3035L17.1841 9.90113C17.6621 9.42432 18 9.18759 18 8.59384V1.07451C17.9994 0.480754 17.517 3.5762e-10 16.9221 3.5762e-10ZM8.93329 16.4809C8.47786 16.9352 7.73903 16.9352 7.28304 16.4809L1.50843 10.7232C1.053 10.2689 1.053 9.53229 1.50843 9.07797L2.34232 8.24693L9.74971 15.6667L8.93329 16.4809ZM16.9221 8.05685C16.9221 8.35372 16.6494 8.78895 16.3587 9.0785L10.5836 14.8362L3.16719 7.4243L8.93329 1.67614C9.19814 1.41188 9.62039 1.07451 9.91786 1.07451H16.3829C16.6803 1.07451 16.9216 1.31518 16.9216 1.61149V8.05685H16.9221ZM10.9963 3.73239C10.0849 4.64104 10.0849 6.11363 10.9963 7.02225C11.9077 7.93091 13.3848 7.93091 14.2963 7.02225C15.2077 6.1136 15.2077 4.64101 14.2963 3.73239C13.3848 2.82376 11.9072 2.82376 10.9963 3.73239ZM13.4709 6.19965C13.0154 6.65397 12.2766 6.65397 11.8206 6.19965C11.3652 5.74534 11.3652 5.00874 11.8206 4.55443C12.276 4.10011 13.0149 4.10011 13.4709 4.55443C13.9269 5.00877 13.9269 5.74534 13.4709 6.19965Z" fill="#6154EE"/>
</svg>
