<?xml version="1.0" encoding="utf-8"?>
<!-- Generator: Adobe Illustrator 16.0.0, SVG Export Plug-In . SVG Version: 6.00 Build 0)  -->
<!DOCTYPE svg PUBLIC "-//W3C//DTD SVG 1.1//EN" "http://www.w3.org/Graphics/SVG/1.1/DTD/svg11.dtd">
<svg version="1.1" id="Layer_1" xmlns="http://www.w3.org/2000/svg" xmlns:xlink="http://www.w3.org/1999/xlink" x="0px" y="0px"
	 width="18px" height="20px" viewBox="0 0 18 20" enable-background="new 0 0 18 20" xml:space="preserve">
<rect fill-opacity="0" width="18" height="19.023"/>
<rect y="2.224" fill-opacity="0" width="16.799" height="16.799"/>
<rect y="2.224" fill-opacity="0" width="16.799" height="16.799"/>
<path fill="#6154EE" d="M15.599,8.824v9H1.2V3.424H3v-1.2H0.6c-0.332,0-0.6,0.269-0.6,0.6v15.599c0,0.331,0.269,0.601,0.6,0.601
	h15.599c0.332,0,0.6-0.27,0.6-0.601V8.824H15.599z"/>
<rect x="4.799" fill-opacity="0" width="13.201" height="8.824"/>
<rect x="4.799" fill-opacity="0" width="13.201" height="8.824"/>
<path fill="#6154EE" d="M17.824,3.6l-3.6-3.6l-0.849,0.848l2.575,2.576H6c-0.582,0-1.2,0.421-1.2,1.2v4.2H6v-4.2h9.952l-2.575,2.575
	l0.849,0.849l3.6-3.6C18.059,4.213,18.059,3.834,17.824,3.6z"/>
</svg>
