<svg width="15" height="17" viewBox="0 0 15 17" fill="none" xmlns="http://www.w3.org/2000/svg">
<rect width="15" height="16.3043" fill="black" fill-opacity="0"/>
<rect width="15" height="16.3043" fill="black" fill-opacity="0"/>
<rect width="15" height="16.3043" fill="black" fill-opacity="0"/>
<rect width="15" height="16.3043" fill="black" fill-opacity="0"/>
<path d="M2.25599 4.51198C3.50044 4.51198 4.51198 3.50044 4.51198 2.25599C4.51198 1.01154 3.50044 0 2.25599 0C1.01154 0 1.26931e-08 1.01154 1.26931e-08 2.25599C0.00332743 3.50044 1.01486 4.51198 2.25599 4.51198ZM2.25599 1.1413C2.87156 1.1413 3.37067 1.64042 3.37067 2.25599C3.37067 2.87156 2.87156 3.37067 2.25599 3.37067C1.64374 3.37067 1.14463 2.87156 1.14463 2.25599C1.14463 1.64042 1.64374 1.1413 2.25599 1.1413Z" fill="white"/>
<path d="M2.25599 10.408C3.50044 10.408 4.51198 9.39644 4.51198 8.15199C4.51198 6.90753 3.50044 5.896 2.25599 5.896C1.01154 5.896 1.26931e-08 6.90753 1.26931e-08 8.15199C0.00332743 9.39644 1.01486 10.408 2.25599 10.408ZM2.25599 7.0373C2.87156 7.0373 3.37067 7.53641 3.37067 8.15199C3.37067 8.76756 2.87156 9.26667 2.25599 9.26667C1.64374 9.26667 1.14463 8.76756 1.14463 8.15199C1.14463 7.53641 1.64374 7.0373 2.25599 7.0373Z" fill="white"/>
<path d="M2.25599 16.3045C3.50044 16.3045 4.51198 15.2929 4.51198 14.0485C4.51198 12.804 3.50044 11.7925 2.25599 11.7925C1.01154 11.7925 1.26931e-08 12.804 1.26931e-08 14.0485C0.00332743 15.2929 1.01486 16.3045 2.25599 16.3045ZM2.25599 12.9338C2.87156 12.9338 3.37067 13.4329 3.37067 14.0485C3.37067 14.664 2.87156 15.1632 2.25599 15.1632C1.64042 15.1632 1.1413 14.664 1.1413 14.0485C1.14463 13.4329 1.64374 12.9338 2.25599 12.9338Z" fill="white"/>
<path d="M5.8363 2.14946C5.8363 2.46557 6.09251 2.72178 6.40862 2.72178H14.4277C14.7438 2.72178 15 2.46557 15 2.14946C15 1.83336 14.7438 1.57715 14.4277 1.57715H6.40862C6.09251 1.57715 5.8363 1.83336 5.8363 2.14946Z" fill="white"/>
<path d="M6.29885 8.72138H14.3179C14.634 8.72138 14.8902 8.46517 14.8902 8.15239C14.8902 7.83629 14.634 7.58008 14.3179 7.58008H6.29885C5.98274 7.58008 5.72986 7.83629 5.72986 8.15239C5.72986 8.4685 5.98274 8.72138 6.29885 8.72138Z" fill="white"/>
<path d="M6.29885 14.6208H14.3179C14.634 14.6208 14.8902 14.3646 14.8902 14.0518C14.8902 13.739 14.634 13.4795 14.3179 13.4795H6.29885C5.98274 13.4795 5.72986 13.7357 5.72986 14.0518C5.72986 14.3679 5.98274 14.6208 6.29885 14.6208Z" fill="white"/>
</svg>
