<svg width="12" height="12" viewBox="0 0 12 12" fill="none" xmlns="http://www.w3.org/2000/svg">
<rect width="12" height="12" fill="black" fill-opacity="0"/>
<rect width="12" height="12" fill="black" fill-opacity="0"/>
<path d="M1.71429 8.57129C0.769071 8.57129 0 9.34036 0 10.2856C0 11.2308 0.769071 11.9999 1.71429 11.9999C2.6595 11.9999 3.42857 11.2308 3.42857 10.2856C3.42857 9.34036 2.6595 8.57129 1.71429 8.57129Z" fill="#C9CCD5"/>
<path d="M6.00005 8.57129C5.05484 8.57129 4.28577 9.34036 4.28577 10.2856C4.28577 11.2308 5.05484 11.9999 6.00005 11.9999C6.94527 11.9999 7.71434 11.2308 7.71434 10.2856C7.71434 9.34036 6.94527 8.57129 6.00005 8.57129Z" fill="#C9CCD5"/>
<path d="M10.2857 8.57129C9.34048 8.57129 8.57141 9.34036 8.57141 10.2856C8.57141 11.2308 9.34048 11.9999 10.2857 11.9999C11.2309 11.9999 12 11.2308 12 10.2856C12 9.34036 11.2309 8.57129 10.2857 8.57129Z" fill="#C9CCD5"/>
<path d="M1.71429 4.28564C0.769071 4.28564 0 5.05472 0 5.99993C0 6.94514 0.769071 7.71422 1.71429 7.71422C2.6595 7.71422 3.42857 6.94514 3.42857 5.99993C3.42857 5.05472 2.6595 4.28564 1.71429 4.28564Z" fill="#C9CCD5"/>
<path d="M6.00005 4.28564C5.05484 4.28564 4.28577 5.05472 4.28577 5.99993C4.28577 6.94514 5.05484 7.71422 6.00005 7.71422C6.94527 7.71422 7.71434 6.94514 7.71434 5.99993C7.71434 5.05472 6.94527 4.28564 6.00005 4.28564Z" fill="#C9CCD5"/>
<path d="M10.2857 4.28564C9.34048 4.28564 8.57141 5.05472 8.57141 5.99993C8.57141 6.94514 9.34048 7.71422 10.2857 7.71422C11.2309 7.71422 12 6.94514 12 5.99993C12 5.05472 11.2309 4.28564 10.2857 4.28564Z" fill="#C9CCD5"/>
<path d="M1.71429 0C0.769071 0 0 0.769071 0 1.71429C0 2.6595 0.769071 3.42857 1.71429 3.42857C2.6595 3.42857 3.42857 2.6595 3.42857 1.71429C3.42857 0.769071 2.6595 0 1.71429 0Z" fill="#C9CCD5"/>
<path d="M6.00005 0C5.05484 0 4.28577 0.769071 4.28577 1.71429C4.28577 2.6595 5.05484 3.42857 6.00005 3.42857C6.94527 3.42857 7.71434 2.6595 7.71434 1.71429C7.71434 0.769071 6.94527 0 6.00005 0Z" fill="#C9CCD5"/>
<path d="M10.2857 3.42857C11.2309 3.42857 12 2.6595 12 1.71429C12 0.769071 11.2309 0 10.2857 0C9.34048 0 8.57141 0.769071 8.57141 1.71429C8.57141 2.6595 9.34048 3.42857 10.2857 3.42857Z" fill="#C9CCD5"/>
</svg>
