<?xml version="1.0" encoding="utf-8"?>
<!-- Generator: Adobe Illustrator 16.0.0, SVG Export Plug-In . SVG Version: 6.00 Build 0)  -->
<!DOCTYPE svg PUBLIC "-//W3C//DTD SVG 1.1//EN" "http://www.w3.org/Graphics/SVG/1.1/DTD/svg11.dtd">
<svg version="1.1" id="Layer_1" xmlns="http://www.w3.org/2000/svg" xmlns:xlink="http://www.w3.org/1999/xlink" x="0px" y="0px"
	 width="10px" height="10px" viewBox="2.5 -3 10 10" enable-background="new 2.5 -3 10 10" xml:space="preserve">
<path fill="#CCCCCC" d="M11.5,7c-0.256,0-0.512-0.098-0.707-0.293l-8-8c-0.391-0.391-0.391-1.023,0-1.414
	c0.391-0.391,1.023-0.391,1.414,0l8,8c0.391,0.391,0.391,1.023,0,1.414C12.012,6.902,11.756,7,11.5,7z"/>
<path fill="#CCCCCC" d="M3.5,7C3.244,7,2.988,6.902,2.793,6.707c-0.391-0.391-0.391-1.023,0-1.414l8-8
	c0.391-0.391,1.023-0.391,1.414,0c0.391,0.391,0.391,1.023,0,1.414l-8,8C4.012,6.902,3.756,7,3.5,7z"/>
</svg>
